<svg version="1.1" id="レイヤー_1" xmlns:x="ns_extend;" xmlns:i="ns_ai;" xmlns:graph="ns_graphs;" xmlns="http://www.w3.org/2000/svg" xmlns:xlink="http://www.w3.org/1999/xlink" x="0px" y="0px" viewBox="0 0 278.9 76" style="enable-background:new 0 0 278.9 76;" xml:space="preserve">
 <style type="text/css">
  .st0{fill:#FB0020;}
	.st1{fill-rule:evenodd;clip-rule:evenodd;}
 </style>
 <metadata>
  <sfw xmlns="ns_sfw;">
   <slices>
   </slices>
   <sliceSourceBounds bottomLeftOrigin="true" height="76" width="278.9" x="-100.7" y="1">
   </sliceSourceBounds>
  </sfw>
 </metadata>
 <g>
  <path d="M212.5,0.2v36.3c0,2.4,1.1,3.6,3.5,3.6h12v4.1c0,0.5-0.3,0.8-0.8,0.8h-19.4c-6,0-7-3.3-7-6.3v-36c0-1.7,0.6-2.5,2.7-2.5
		L212.5,0.2">
  </path>
  <path d="M190.2,0.2v42.5c0,1.9-0.8,2.4-2.4,2.4h-9.2V2.5c0-1.4,0.5-2.4,2.5-2.4H190.2">
  </path>
  <path d="M0,6.3c0-3.5,0-6.2,5.7-6.2h24.6v4.3c0,0.3-0.2,0.6-0.6,0.6H14.9C13,5.1,12,6,12,8.1v11.4h17.4V24c0,0.5-0.3,0.6-0.6,0.6
		H12v18c0,1.7-0.9,2.4-2.8,2.4H0V6.3">
  </path>
  <path d="M48.2,0.2v34.3c0,3,0.5,5.1,2.5,6.2c2.7,1.6,7.4,1.6,10.3,0c1.9-1.1,2.7-2.8,2.7-6.2V2.4c0-1.4,0.5-2.2,2.5-2.2h9v33.2
		c0,7.7-4.9,10.9-9.2,12c-5.7,1.6-14.4,1.6-19.8,0c-6.5-1.9-9.5-5.7-9.5-12v-31C36.8,0.9,37.3,0,39,0h9.2">
  </path>
  <path d="M265.8,0.2c-2.2,0-3.6,1.1-4.1,3.2l-7.3,31h-0.2l-7.7-34.1h-10.3c-2.1,0-2.7,0.9-2.7,2.7v42.3h4.4c0.6,0,0.9-0.3,0.9-1.1
		V8.5h0.6l9.3,36.5h6.2c2.4,0,3.2-0.9,3.8-3.2l8.4-33.3h0.6V45h8.2c2.1,0,2.8-0.8,2.8-2.7V0.2H265.8">
  </path>
  <path d="M129.7,24.5h-11.5V45h9.2c1.6,0,2.4-0.5,2.4-2.4C129.7,42.7,129.7,34,129.7,24.5">
  </path>
  <path class="st0" d="M129.1,15.8c0.5-0.3,0.6-0.6,0.6-1.3V0.2h-9c-2.1,0-2.5,0.9-2.5,2.4v21.8L129.1,15.8">
  </path>
  <path d="M89.6,41.6c5.1-0.6,6.6-3.6,6.6-8.1v-31c0-1.9,0.9-2.4,2.2-2.4h9.2v29.2c0,7.1-1.6,10.7-5.7,13.9c-2.2,1.6-6,3.5-14.5,3.5
		c-4.7,0-7-0.3-7.3-0.3c-0.5-0.2-0.6-0.3-0.6-0.6V42C81.8,41.9,86.3,42,89.6,41.6">
  </path>
  <path d="M147.3,0.2c-5.7,0-5.7,2.8-5.7,6.2v11.5c0,0.3-0.2,0.3-0.2,0.5l-7.9,6.2h8.1V45h9.2c1.9,0,2.8-0.6,2.8-2.4V24.5h16.7
		c0.3,0,0.6-0.2,0.6-0.6v-4.6h-17.4V7.9c0-2.1,0.9-3,3-3h14.9c0.5,0,0.6-0.3,0.6-0.6V0.2H147.3">
  </path>
  <path d="M14.4,58.5l5.4,11.9l5.1-11.9h2.5l-7.1,16.7c-0.2,0.5-0.6,0.6-0.9,0.6h-1.1l-7.6-16.7c-0.2-0.3,0.2-0.6,0.5-0.6L14.4,58.5">
  </path>
  <path d="M44.6,75.1c0,0.3-0.3,0.6-0.6,0.6h-3V57.4c0-0.3,0.3-0.6,0.6-0.6h3V75.1">
  </path>
  <path d="M147.3,59.3c0-0.3,0.3-0.6,0.8-0.6h3.3v16.4c0,0.3-0.3,0.8-0.6,0.8h-3.3V59.3">
  </path>
  <path d="M200.5,62.6l3.6,8.1l3.6-8.1h2.5l-5.8,12.8c-0.2,0.3-0.6,0.6-0.9,0.6h-0.9l-5.7-12.8c-0.2-0.3,0.2-0.6,0.5-0.6H200.5">
  </path>
  <path d="M235.1,63.5c0-0.3,0.3-0.8,0.6-0.8h3v12.3c0,0.3-0.3,0.6-0.6,0.6h-3V63.5">
  </path>
  <path d="M99.7,62.4c-1.1,0-2.4,0.6-3.3,1.4v-1.1h-3c-0.3,0-0.8,0.3-0.8,0.8v12.3h3c0.3,0,0.8-0.3,0.8-0.8v-8.7v-0.2
		c2.2-2.2,4.4-1.1,5.5-0.2v-3C101.4,62.7,101,62.4,99.7,62.4">
  </path>
  <path d="M34,72.8c0-1.3,0-3,0-4.3c-2.5,0.8-3.6,2.4-3.6,3.6c0,0.8,0.5,1.7,1.4,1.7C32.9,73.8,33.5,73.2,34,72.8 M32.5,62.4
		c4.1,0,5.1,1.9,5.1,3.5v9c0,0.3-0.3,0.6-0.8,0.6h-3v-1.1v-0.2c-1.1,1.1-2.7,1.4-3.5,1.4c-0.8,0-3.8-0.3-3.8-3.5
		c0-3.5,4.4-4.7,7.4-5.5l0,0c0-0.9,0-1.3-0.2-1.9S32.7,64,32.4,64c-1.6,0-3.3,0.5-4.9,1.3v-1.7C28.9,63,30.8,62.4,32.5,62.4">
  </path>
  <path d="M89.4,59.1c0.9,0,1.6,0,2.5,0.3v-1.7c-0.9-0.3-1.9-0.3-2.8-0.3c-1.6,0-5.1,0.6-5.1,3.6v1.7h-2.4v1.6h2.4v11.4h3
		c0.3,0,0.6-0.3,0.6-0.6V64.3h3v-1.6h-3v-0.8c0-0.9,0-1.3,0.2-1.9C88.3,59.4,89.1,59.1,89.4,59.1">
  </path>
  <path class="st1" d="M61.1,69.7c0,3.3,2.8,6.3,6.3,6.3c2.1,0,3.6-1.1,4.6-2.1c0.8-0.8,1.4-1.7,1.6-3.2h-1.9
		c-0.2,0.6-1.1,2.7-3.5,2.7c-2.8,0-3.3-2.7-3.3-4.4h8.5c0.2-3.6-1.9-6.3-5.7-6.5C64.1,62.4,61.1,65.1,61.1,69.7z M66.8,64.1
		c1.1,0,2.2,0.8,2.2,3.5h-4.3C64.9,66.5,65.1,64.1,66.8,64.1z">
  </path>
  <path d="M108.9,64c-1.3,0.2-2.8,2.2-2.1,6.6c0.5,2.8,1.9,3.8,3,3.8c1.1,0,2.4-1.6,2.4-4.3C112.2,64.6,109.8,63.8,108.9,64
		 M116.1,69c0,3.6-2.8,7-6.8,7c-3.8,0-6.8-2.8-6.8-6.6c0-3.8,2.7-6.8,6.8-6.8C113.3,62.4,116.1,65.3,116.1,69">
  </path>
  <path d="M188.8,64c-1.3,0.2-2.8,2.2-2.1,6.6c0.5,2.8,1.9,3.8,3,3.8c1.1,0,2.4-1.6,2.4-4.3C192.1,64.6,189.8,63.8,188.8,64
		 M196.1,69c0,3.6-2.8,7-6.8,7c-3.8,0-6.8-2.8-6.8-6.6c0-3.8,2.7-6.8,6.8-6.8C193.1,62.4,196.1,65.3,196.1,69">
  </path>
  <path d="M247.6,64c-1.3,0.2-2.8,2.2-2.1,6.6c0.5,2.8,1.9,3.8,3,3.8c1.1,0,2.4-1.6,2.4-4.3C250.9,64.6,248.7,63.8,247.6,64 M255,69
		c0,3.6-2.8,7-6.8,7c-3.8,0-6.8-2.8-6.8-6.6c0-3.8,2.7-6.8,6.8-6.8C252,62.4,255,65.3,255,69">
  </path>
  <path d="M239.1,59.6c0,1.1-0.9,2.1-2.1,2.1s-2.1-0.9-2.1-2.1c0-1.1,0.9-2.1,2.1-2.1S239.1,58.5,239.1,59.6">
  </path>
  <path d="M51.4,62.7v9.2c0,0.8,0.6,1.9,1.7,1.9c0.6,0,1.4-0.8,2.1-1.6v-8.7c0-0.3,0.3-0.6,0.8-0.6h3v12.3c0,0.3-0.3,0.6-0.8,0.6h-3
		v-1.3c-0.5,0.5-0.9,0.8-1.6,1.1C53.1,76,52.5,76,52,76c-2.5,0-4.3-2.1-4.3-4.1v-8.4c0-0.3,0.3-0.6,0.8-0.6h2.8">
  </path>
  <path d="M225.9,62.7v-3.3c0-0.3,0.3-0.8,0.6-0.8h3v4.1h3v1.6h-3v8.4c0,0.3,0,0.5,0.2,0.6c0.2,0.2,0.5,0.3,0.8,0.3
		c0.8,0,1.9-0.6,2.1-0.9v1.9c-0.8,0.6-2.1,1.4-3.6,1.4c-2.4,0-3.2-1.7-3.2-3.2v-8.5h-1.9v-1.6L225.9,62.7">
  </path>
  <path d="M172.7,66.2c0.2-0.2,1.4-1.4,2.5-1.4c0.8,0,1.3,0.9,1.3,2.1v8.8h3c0.3,0,0.6-0.3,0.6-0.6v-8.5c0-2.4-2.1-4-3.8-4
		c-1.9,0-3.2,0.8-3.8,1.3v-0.9h-3c-0.3,0-0.8,0.3-0.8,0.6v12.3h3c0.3,0,0.8-0.3,0.8-0.6v-9H172.7z">
  </path>
  <path d="M261,66.2c0.2-0.2,1.4-1.4,2.5-1.4c0.8,0,1.3,0.9,1.3,2.1v8.8h3c0.3,0,0.6-0.3,0.6-0.6v-8.5c0-2.4-2.1-4-3.8-4
		c-1.9,0-3.2,0.8-3.8,1.3v-0.9H258c-0.3,0-0.6,0.3-0.6,0.6v12.3h3c0.3,0,0.6-0.3,0.6-0.6V66.2z">
  </path>
  <path d="M212,63.5v1.7c1.4-0.6,3.3-1.3,4.9-1.3c0.3,0,1.3,0.2,1.4,0.8c0.2,0.6,0.2,0.9,0.2,1.9l0,0c-3,0.8-7.4,2.1-7.4,5.5
		c0,3.2,3,3.5,3.8,3.5s2.4-0.2,3.5-1.4v0.2v1.1h3c0.3,0,0.8-0.3,0.8-0.6v-9c0-1.6-0.9-3.5-5.1-3.5C215.4,62.4,213.5,63,212,63.5
		 M216.3,73.8c-0.9,0-1.4-0.9-1.4-1.7c0-1.1,1.1-2.7,3.6-3.6c0,1.3,0,3,0,4.3C218,73.2,217.4,73.8,216.3,73.8">
  </path>
  <path d="M158.5,66.2c0.2-0.2,1.4-1.4,2.5-1.4c0.8,0,1.3,0.9,1.3,2.1v8.8h3c0.3,0,0.6-0.3,0.6-0.6v-8.5c0-2.4-2.1-4-3.8-4
		c-1.9,0-3.2,0.8-3.8,1.3v-0.9h-3c-0.3,0-0.8,0.3-0.8,0.6v12.3h3c0.3,0,0.8-0.3,0.8-0.6v-9H158.5z">
  </path>
  <path d="M133.7,62.4c-1.9,0-3.3,0.8-4.4,1.6c-0.8-1.3-2.2-1.6-3.2-1.6c-1.9,0-3.2,0.8-3.8,1.3v-0.9h-3c-0.3,0-0.6,0.3-0.6,0.6v12.3
		h3c0.3,0,0.8-0.3,0.8-0.6v-8.8c0.2-0.2,1.4-1.4,2.5-1.4c0.8,0,1.3,0.9,1.3,2.1v8.8h3l0,0c0.3,0,0.6-0.3,0.6-0.6v-8.8
		c0.2-0.2,1.4-1.4,2.5-1.4c0.8,0,1.3,0.9,1.3,2.1v8.8h3c0.3,0,0.6-0.3,0.6-0.6v-8.5C137.3,64,135.4,62.4,133.7,62.4">
  </path>
 </g>
</svg>